<svg id="Layer_1" data-name="Layer 1" xmlns="http://www.w3.org/2000/svg" width="160" height="36.45" viewBox="0 0 160 36.45"><title>globalnoc-logoArtboard 1</title><path d="M52.42,25.88a8.79,8.79,0,0,1-3.37-.62,7.62,7.62,0,0,1-2.59-1.72A7.7,7.7,0,0,1,44.8,21a8.64,8.64,0,0,1-.59-3.22v0a8.29,8.29,0,0,1,.6-3.14,8,8,0,0,1,1.69-2.61A8.12,8.12,0,0,1,52.4,9.51a11.13,11.13,0,0,1,1.89.15,8.74,8.74,0,0,1,1.57.42,7.93,7.93,0,0,1,1.37.67,10,10,0,0,1,1.25.92l-1.76,2.1a10,10,0,0,0-.93-.7,5.73,5.73,0,0,0-1-.53,6.15,6.15,0,0,0-1.14-.34,7,7,0,0,0-1.37-.12,4.59,4.59,0,0,0-2,.45,5.28,5.28,0,0,0-1.63,1.21,5.65,5.65,0,0,0-1.08,1.78,5.9,5.9,0,0,0-.4,2.15v0A6.5,6.5,0,0,0,47.54,20a5.06,5.06,0,0,0,2.78,3,5.42,5.42,0,0,0,2.2.43A6.58,6.58,0,0,0,54.63,23a5.92,5.92,0,0,0,1.7-.87v-3h-4V16.77H59v6.64a11.75,11.75,0,0,1-1.3.95,9.72,9.72,0,0,1-3.31,1.32A10,10,0,0,1,52.42,25.88Z" style="fill:#fff"/><path d="M61.4,9.79h2.76V25.61H61.4Z" style="fill:#fff"/><path d="M72.06,25.88a6.48,6.48,0,0,1-2.52-.49,6.25,6.25,0,0,1-2-1.32,6,6,0,0,1-1.32-2,6.12,6.12,0,0,1-.47-2.4v0a6,6,0,0,1,.49-2.42,6.22,6.22,0,0,1,3.34-3.32,6.41,6.41,0,0,1,2.54-.5,6.54,6.54,0,0,1,2.54.49A6.11,6.11,0,0,1,78,17.21a6.09,6.09,0,0,1,.47,2.41v0a6,6,0,0,1-.49,2.4,6.2,6.2,0,0,1-3.36,3.32A6.49,6.49,0,0,1,72.06,25.88Zm0-2.37a3.53,3.53,0,0,0,1.49-.31,3.47,3.47,0,0,0,1.13-.82,3.56,3.56,0,0,0,.72-1.21,4.29,4.29,0,0,0,.25-1.46v0a4.13,4.13,0,0,0-.27-1.49,3.75,3.75,0,0,0-.75-1.22,3.6,3.6,0,0,0-1.14-.82,3.7,3.7,0,0,0-2.94,0,3.56,3.56,0,0,0-1.13.81,3.43,3.43,0,0,0-.72,1.21,4.39,4.39,0,0,0-.25,1.47v0a4,4,0,0,0,.27,1.48,3.91,3.91,0,0,0,.75,1.22,3.53,3.53,0,0,0,1.15.84A3.42,3.42,0,0,0,72.11,23.5Z" style="fill:#fff"/><path d="M86.74,25.85a4.37,4.37,0,0,1-2.44-.63,6.27,6.27,0,0,1-1.6-1.47v1.85H79.95V9.79H82.7l0,5.88a6,6,0,0,1,1.63-1.59,4.28,4.28,0,0,1,2.42-.64,5.39,5.39,0,0,1,2.06.41A5.29,5.29,0,0,1,90.56,15,6,6,0,0,1,91.81,17a6.9,6.9,0,0,1,.47,2.64v0a7.06,7.06,0,0,1-.46,2.64,5.82,5.82,0,0,1-1.24,1.94,5.23,5.23,0,0,1-1.78,1.2A5.44,5.44,0,0,1,86.74,25.85Zm-.62-2.37a3.27,3.27,0,0,0,1.32-.27,3.31,3.31,0,0,0,1.08-.76,3.53,3.53,0,0,0,.73-1.2,4.44,4.44,0,0,0,.27-1.59v0A4.37,4.37,0,0,0,89.26,18a3.66,3.66,0,0,0-.73-1.21,3.24,3.24,0,0,0-1.08-.77,3.27,3.27,0,0,0-1.32-.27,3.34,3.34,0,0,0-1.33.27,3.25,3.25,0,0,0-1.11.78,3.87,3.87,0,0,0-.76,1.21,4.13,4.13,0,0,0-.28,1.56v0a4.22,4.22,0,0,0,.28,1.57,3.7,3.7,0,0,0,.76,1.21,3.36,3.36,0,0,0,2.44,1Z" style="fill:#fff"/><path d="M101.1,25.61V24.14a5.1,5.1,0,0,1-1.56,1.22,4.92,4.92,0,0,1-2.3.5,5.48,5.48,0,0,1-1.63-.24,4,4,0,0,1-1.34-.7A3.4,3.4,0,0,1,93,22.17v0a3.88,3.88,0,0,1,.36-1.73,3.37,3.37,0,0,1,1-1.22,4.4,4.4,0,0,1,1.54-.72,7.5,7.5,0,0,1,1.93-.24,10.62,10.62,0,0,1,1.84.14,11.16,11.16,0,0,1,1.46.36v-.23a2.38,2.38,0,0,0-.76-1.9,3.24,3.24,0,0,0-2.18-.66,7.3,7.3,0,0,0-1.81.2,11.87,11.87,0,0,0-1.6.54L94,14.49a12.6,12.6,0,0,1,2-.72,10.05,10.05,0,0,1,2.51-.27,5.3,5.3,0,0,1,4,1.32,5.1,5.1,0,0,1,1.29,3.72v7.07Zm.07-5a7,7,0,0,0-1.23-.34,8,8,0,0,0-1.5-.14,3.51,3.51,0,0,0-2,.5A1.56,1.56,0,0,0,95.7,22v0a1.48,1.48,0,0,0,.67,1.31A2.85,2.85,0,0,0,98,23.8a4.17,4.17,0,0,0,1.25-.18,3.24,3.24,0,0,0,1-.51,2.32,2.32,0,0,0,.67-.79,2.23,2.23,0,0,0,.24-1Z" style="fill:#fff"/><path d="M105.93,9.79h2.76V25.61h-2.76Z" style="fill:#fff"/><path d="M111.07,9.79h4.1l6.52,8.36V9.79H126V25.61h-3.85l-6.77-8.68v8.68h-4.32Z" style="fill:#fff"/><path d="M135.76,25.92a8.8,8.8,0,0,1-3.39-.64,8.35,8.35,0,0,1-2.69-1.75,8.08,8.08,0,0,1-1.77-2.6,8,8,0,0,1-.64-3.19v0a8.06,8.06,0,0,1,2.44-5.82,8.51,8.51,0,0,1,2.71-1.76,9.24,9.24,0,0,1,6.78,0,8.35,8.35,0,0,1,2.69,1.75,8.09,8.09,0,0,1,1.77,2.6,8,8,0,0,1,.64,3.19v0a8.06,8.06,0,0,1-2.44,5.82,8.52,8.52,0,0,1-2.71,1.76A8.8,8.8,0,0,1,135.76,25.92Zm0-4a4,4,0,0,0,1.65-.34,3.81,3.81,0,0,0,1.27-.92,4.26,4.26,0,0,0,.82-1.34,4.51,4.51,0,0,0,.29-1.63v0a4.52,4.52,0,0,0-.29-1.63,4.18,4.18,0,0,0-.84-1.36,4.13,4.13,0,0,0-1.29-.94,4.12,4.12,0,0,0-3.3,0A3.94,3.94,0,0,0,132,16a4.67,4.67,0,0,0-.28,1.63v0a4.52,4.52,0,0,0,.29,1.63,4.28,4.28,0,0,0,.83,1.36,4,4,0,0,0,1.28.94A3.85,3.85,0,0,0,135.79,22Z" style="fill:#fff"/><path d="M153,25.92a8.33,8.33,0,0,1-3.19-.61,7.78,7.78,0,0,1-2.59-1.71,8.22,8.22,0,0,1-2.38-5.86v0a8.25,8.25,0,0,1,2.37-5.84,7.94,7.94,0,0,1,2.63-1.75,8.63,8.63,0,0,1,3.33-.63,9.56,9.56,0,0,1,2.22.24,7.58,7.58,0,0,1,1.82.68,7.27,7.27,0,0,1,1.49,1.05,8.66,8.66,0,0,1,1.19,1.33l-3.3,2.55A5.71,5.71,0,0,0,155.1,14a3.7,3.7,0,0,0-2-.5,3.51,3.51,0,0,0-1.53.33,3.65,3.65,0,0,0-1.19.89,4.17,4.17,0,0,0-.78,1.33,4.67,4.67,0,0,0-.28,1.63v0a4.83,4.83,0,0,0,.28,1.66,4.14,4.14,0,0,0,.78,1.34,3.64,3.64,0,0,0,1.19.89,3.5,3.5,0,0,0,1.53.33,4.32,4.32,0,0,0,1.12-.14,3.41,3.41,0,0,0,.93-.4,5,5,0,0,0,.79-.61,9.26,9.26,0,0,0,.73-.78l3.3,2.35a11.86,11.86,0,0,1-1.23,1.42,7.08,7.08,0,0,1-1.51,1.13,7.92,7.92,0,0,1-1.9.75A9.46,9.46,0,0,1,153,25.92Z" style="fill:#fff"/><rect x="3.69" y="28.6" width="4.16" height="2.13" rx="0.6" ry="0.6" style="fill:#b20838"/><rect y="10.25" width="4.16" height="2.13" rx="0.6" ry="0.6" style="fill:#b20838"/><path d="M38.29,16.26H37.23a.6.6,0,0,1-.6-.6v-.94a.6.6,0,0,1,.6-.6h.7A16.84,16.84,0,0,1,38.29,16.26Z" style="fill:#6dcad7"/><rect x="28.7" y="22.22" width="4.16" height="2.13" rx="0.6" ry="0.6" style="fill:#b7ca33"/><rect x="19.19" y="15.33" width="4.16" height="2.13" rx="0.6" ry="0.6" style="fill:#6dcad7"/><path d="M34.64,29.44a19.74,19.74,0,0,1-1.72,2H31.28a.6.6,0,0,1-.6-.6v-.94a.6.6,0,0,1,.6-.6h3A.59.59,0,0,1,34.64,29.44Z" style="fill:#00967f"/><rect x="11.35" y="8.12" width="4.16" height="2.13" rx="0.6" ry="0.6" style="fill:#b7ca33"/><rect x="6.1" y="22.63" width="4.16" height="2.13" rx="0.6" ry="0.6" style="fill:#b20838"/><rect x="31.91" y="15.84" width="4.16" height="2.13" rx="0.6" ry="0.6" style="fill:#b7ca33"/><rect x="8.03" y="4.52" width="4.16" height="2.13" rx="0.6" ry="0.6" style="fill:#b20838"/><path d="M34.16,6.34H31.67a.6.6,0,0,1-.6-.6V4.81a.6.6,0,0,1,.6-.6h.46A19.28,19.28,0,0,1,34.16,6.34Z" style="fill:#b7ca33"/><rect x="6.18" y="11.32" width="4.16" height="2.13" rx="0.6" ry="0.6" style="fill:#00967f"/><rect x="27.44" y="13.76" width="4.16" height="2.13" rx="0.6" ry="0.6" style="fill:#b20838"/><rect x="17.48" y="28.43" width="4.16" height="2.13" rx="0.6" ry="0.6" style="fill:#b20838"/><rect x="19.63" y="9.29" width="4.16" height="2.13" rx="0.6" ry="0.6" style="fill:#b7ca33"/><rect x="11.43" y="1.49" width="4.16" height="2.13" rx="0.6" ry="0.6" style="fill:#00967f"/><rect x="19.63" y="24.41" width="4.16" height="2.13" rx="0.6" ry="0.6" style="fill:#00967f"/><rect x="22.84" y="30.34" width="4.16" height="2.13" rx="0.6" ry="0.6" style="fill:#00967f"/><rect x="14.97" y="11.95" width="4.16" height="2.13" rx="0.6" ry="0.6" style="fill:#b20838"/><rect x="3.49" y="16.73" width="4.16" height="2.13" rx="0.6" ry="0.6" style="fill:#6dcad7"/><path d="M36.36,9.72a.71.71,0,0,1-.24,0h-3a.6.6,0,0,1-.6-.6V8.23a.6.6,0,0,1,.6-.6h2A17.23,17.23,0,0,1,36.36,9.72Z" style="fill:#b20838"/><path d="M31.08,3.36a.6.6,0,0,1-.48.24h-3A.6.6,0,0,1,27,3V2.06a.6.6,0,0,1,.6-.6h.43A17.42,17.42,0,0,1,31.08,3.36Z" style="fill:#b20838"/><rect x="26.8" y="9.43" width="4.16" height="2.13" rx="0.6" ry="0.6" style="fill:#b7ca33"/><path d="M29,34.41l-.44.27-.1.05a17.56,17.56,0,0,1-2.8,1.21h-.22a.6.6,0,0,1-.6-.6v-.94a.6.6,0,0,1,.6-.6h3A.6.6,0,0,1,29,34.41Z" style="fill:#b7ca33"/><rect x="20.4" y="19.8" width="4.16" height="2.13" rx="0.6" ry="0.6" style="fill:#00967f"/><rect x="15.47" y="3.86" width="4.16" height="2.13" rx="0.6" ry="0.6" style="fill:#b7ca33"/><rect x="25.22" y="26.76" width="4.16" height="2.13" rx="0.6" ry="0.6" style="fill:#b7ca33"/><rect x="11.29" y="29.67" width="4.16" height="2.13" rx="0.6" ry="0.6" style="fill:#6dcad7"/><rect x="9.01" y="15.27" width="4.16" height="2.13" rx="0.6" ry="0.6" style="fill:#b7ca33"/><path d="M27.93,1.39v.1a.6.6,0,0,1-.6.6h-3a.6.6,0,0,1-.6-.6V.55A.6.6,0,0,1,24.15,0,18.26,18.26,0,0,1,27.93,1.39Z" style="fill:#6dcad7"/><path d="M37.84,22.67a18.71,18.71,0,0,1-.66,2.13H36.9a.6.6,0,0,1-.6-.6v-.94a.6.6,0,0,1,.6-.6Z" style="fill:#b7ca33"/><rect x="17.55" y="34.31" width="4.16" height="2.13" rx="0.6" ry="0.6" style="fill:#b20838"/><rect x="22.48" y="22.9" width="4.16" height="2.13" rx="0.6" ry="0.6" style="fill:#b20838"/><rect x="27.06" y="18.31" width="4.16" height="2.13" rx="0.6" ry="0.6" style="fill:#b20838"/><rect x="17.55" y="0.11" width="4.16" height="2.13" rx="0.6" ry="0.6" style="fill:#b20838"/><rect x="14.47" y="7.22" width="4.16" height="2.13" rx="0.6" ry="0.6" style="fill:#00967f"/><path d="M31.55,32.67A18.46,18.46,0,0,1,29,34.43l-.55.31h-.18a.6.6,0,0,1-.6-.6V33.2a.6.6,0,0,1,.6-.6h3A.6.6,0,0,1,31.55,32.67Z" style="fill:#b20838"/><path d="M36.84,25.66a17.91,17.91,0,0,1-1.1,2.13H34.26a.6.6,0,0,1-.6-.6v-.94a.6.6,0,0,1,.6-.6Z" style="fill:#b20838"/><rect x="14.47" y="19.66" width="4.16" height="2.13" rx="0.6" ry="0.6" style="fill:#b7ca33"/><rect x="22.21" y="12.05" width="4.16" height="2.13" rx="0.6" ry="0.6" style="fill:#00967f"/><rect x="25.45" y="5.22" width="4.16" height="2.13" rx="0.6" ry="0.6" style="fill:#00967f"/><path d="M37.68,13.1h-2.3a.6.6,0,0,1-.6-.6v-.94a.6.6,0,0,1,.6-.6h1.56A18.61,18.61,0,0,1,37.68,13.1Z" style="fill:#00967f"/><rect x="22.38" y="6.17" width="4.16" height="2.13" rx="0.6" ry="0.6" style="fill:#b20838"/><rect x="29.12" y="10.38" width="4.16" height="2.13" rx="0.6" ry="0.6" style="fill:#6dcad7"/><rect x="31.06" y="21.38" width="4.16" height="2.13" rx="0.6" ry="0.6" style="fill:#00967f"/><path d="M38.36,18.85A15.68,15.68,0,0,1,38.17,21H35.93a.6.6,0,0,1-.6-.6v-.95a.61.61,0,0,1,.6-.6Z" style="fill:#b20838"/><rect x="12.39" y="23.3" width="4.16" height="2.13" rx="0.6" ry="0.6" style="fill:#00967f"/><rect x="24.53" y="16.99" width="4.16" height="2.13" rx="0.6" ry="0.6" style="fill:#6dcad7"/><rect x="21.13" y="2.89" width="4.16" height="2.13" rx="0.6" ry="0.6" style="fill:#6dcad7"/><rect x="27.13" y="25.7" width="4.16" height="2.13" rx="0.6" ry="0.6" style="fill:#6dcad7"/><rect x="16.55" y="16.39" width="4.16" height="2.13" rx="0.6" ry="0.6" style="fill:#b20838"/></svg>